<svg width="24" height="22" viewBox="0 0 24 22" fill="none" xmlns="http://www.w3.org/2000/svg">
<path id="Vector" fill-rule="evenodd" clip-rule="evenodd" d="M0.823118 1.69231H22.2245C22.6788 1.69231 23.0476 1.31323 23.0476 0.846154C23.0476 0.379077 22.6788 0 22.2245 0H0.823118C0.370398 0 -1.14441e-05 0.379077 -1.14441e-05 0.846154C-1.14441e-05 1.31323 0.370398 1.69231 0.823118 1.69231ZM22.2245 6.76923H7.40815C6.95543 6.76923 6.58502 7.14831 6.58502 7.61538C6.58502 8.08246 6.95543 8.46154 7.40815 8.46154H22.2245C22.6788 8.46154 23.0476 8.08246 23.0476 7.61538C23.0476 7.14662 22.6788 6.76923 22.2245 6.76923ZM22.2245 13.5367H0.823118C0.370398 13.5367 -1.14441e-05 13.9158 -1.14441e-05 14.3829C-1.14441e-05 14.8499 0.370398 15.229 0.823118 15.229H22.2245C22.6788 15.229 23.0476 14.8499 23.0476 14.3829C23.0476 13.9158 22.6788 13.5367 22.2245 13.5367ZM22.2245 20.3077H9.87754C9.42482 20.3077 9.05441 20.6868 9.05441 21.1538C9.05441 21.6209 9.42482 22 9.87754 22H22.2245C22.6788 22 23.0476 21.6209 23.0476 21.1538C23.0476 20.6868 22.6788 20.3077 22.2245 20.3077Z" fill="#2A2A2A"/>
</svg>
